<svg xmlns="http://www.w3.org/2000/svg" width="1100" height="560" viewBox="0 0 1100 560">
<rect width="100%" height="100%" fill="#ffffff"/>
<text x="80" y="30" font-family="Arial, sans-serif" font-size="22" font-weight="700" fill="#111827">Deepvan 组合净值曲线</text>
<text x="80" y="52" font-family="Arial, sans-serif" font-size="13" fill="#6b7280">黑线为官方锚定细化曲线；蓝线为国际版持仓重建；红线为内地版代理口径。</text>
<line x1="80" y1="485.0" x2="1065" y2="485.0" stroke="#e5e7eb" stroke-width="1"/>
<text x="70" y="489.0" text-anchor="end" font-family="Arial, sans-serif" font-size="12" fill="#6b7280">0.94</text>
<line x1="80" y1="397.0" x2="1065" y2="397.0" stroke="#e5e7eb" stroke-width="1"/>
<text x="70" y="401.0" text-anchor="end" font-family="Arial, sans-serif" font-size="12" fill="#6b7280">1.04</text>
<line x1="80" y1="309.0" x2="1065" y2="309.0" stroke="#e5e7eb" stroke-width="1"/>
<text x="70" y="313.0" text-anchor="end" font-family="Arial, sans-serif" font-size="12" fill="#6b7280">1.14</text>
<line x1="80" y1="221.0" x2="1065" y2="221.0" stroke="#e5e7eb" stroke-width="1"/>
<text x="70" y="225.0" text-anchor="end" font-family="Arial, sans-serif" font-size="12" fill="#6b7280">1.24</text>
<line x1="80" y1="133.0" x2="1065" y2="133.0" stroke="#e5e7eb" stroke-width="1"/>
<text x="70" y="137.0" text-anchor="end" font-family="Arial, sans-serif" font-size="12" fill="#6b7280">1.34</text>
<line x1="80" y1="45.0" x2="1065" y2="45.0" stroke="#e5e7eb" stroke-width="1"/>
<text x="70" y="49.0" text-anchor="end" font-family="Arial, sans-serif" font-size="12" fill="#6b7280">1.44</text>
<line x1="80.0" y1="45" x2="80.0" y2="485" stroke="#f3f4f6" stroke-width="1"/>
<text x="80.0" y="510" text-anchor="middle" font-family="Arial, sans-serif" font-size="12" fill="#6b7280">2025-01-08</text>
<line x1="326.2" y1="45" x2="326.2" y2="485" stroke="#f3f4f6" stroke-width="1"/>
<text x="326.2" y="510" text-anchor="middle" font-family="Arial, sans-serif" font-size="12" fill="#6b7280">2025-05-25</text>
<line x1="572.5" y1="45" x2="572.5" y2="485" stroke="#f3f4f6" stroke-width="1"/>
<text x="572.5" y="510" text-anchor="middle" font-family="Arial, sans-serif" font-size="12" fill="#6b7280">2025-10-09</text>
<line x1="818.8" y1="45" x2="818.8" y2="485" stroke="#f3f4f6" stroke-width="1"/>
<text x="818.8" y="510" text-anchor="middle" font-family="Arial, sans-serif" font-size="12" fill="#6b7280">2026-02-23</text>
<line x1="1065.0" y1="45" x2="1065.0" y2="485" stroke="#f3f4f6" stroke-width="1"/>
<text x="1065.0" y="510" text-anchor="middle" font-family="Arial, sans-serif" font-size="12" fill="#6b7280">2026-07-10</text>
<line x1="80" y1="485" x2="1065" y2="485" stroke="#9ca3af"/>
<line x1="80" y1="45" x2="80" y2="485" stroke="#9ca3af"/>
<polyline points="80.0,376.8 81.8,376.5 83.6,376.2 85.4,375.8 87.2,375.5 89.0,375.2 90.8,374.9 92.6,374.6 94.4,374.3 96.2,374.0 98.0,373.7 99.8,373.4 101.6,373.1 103.4,372.8 105.2,372.4 107.0,372.1 108.8,371.8 110.6,371.5 112.4,371.2 114.2,370.9 115.9,370.6 117.7,370.3 119.5,370.0 121.3,369.7 123.1,369.3 124.9,369.0 126.7,368.7 128.5,368.4 130.3,368.1 132.1,367.8 133.9,367.5 135.7,367.2 137.5,366.9 139.3,366.6 141.1,366.3 142.9,365.9 144.7,365.6 146.5,365.3 148.3,365.0 150.1,364.7 151.9,364.4 153.7,364.1 155.5,363.8 157.3,363.5 159.1,363.2 160.9,362.9 162.7,362.5 164.5,362.2 166.3,361.9 168.1,361.6 169.9,361.3 171.7,361.0 173.5,360.7 175.3,360.4 177.1,360.1 178.9,359.8 180.7,359.5 182.5,359.1 184.3,358.8 186.0,358.5 187.8,358.2 189.6,357.9 191.4,357.6 193.2,357.3 195.0,357.0 196.8,356.7 198.6,356.4 200.4,356.1 202.2,355.7 204.0,355.4 205.8,355.1 207.6,354.8 209.4,354.5 211.2,354.2 213.0,353.9 214.8,353.6 216.6,353.3 218.4,353.0 220.2,352.7 222.0,352.3 223.8,352.0 225.6,351.7 227.4,351.4 229.2,351.1 231.0,350.8 232.8,350.5 234.6,350.2 236.4,349.9 238.2,349.6 240.0,349.2 241.8,348.9 243.6,348.6 245.4,348.3 247.2,348.0 249.0,347.7 250.8,347.4 252.6,347.1 254.4,346.8 256.1,346.5 257.9,346.2 259.7,345.8 261.5,345.5 263.3,345.2 265.1,344.9 266.9,344.6 268.7,344.3 270.5,344.0 272.3,343.7 274.1,343.4 275.9,343.1 277.7,342.8 279.5,342.4 281.3,342.1 283.1,341.8 284.9,341.5 286.7,341.2 288.5,340.9 290.3,340.6 292.1,340.3 293.9,340.0 295.7,339.7 297.5,339.4 299.3,339.0 301.1,338.7 302.9,338.4 304.7,338.1 306.5,337.8 308.3,333.7 310.1,330.5 311.9,330.6 313.7,330.6 315.5,328.0 317.3,325.7 319.1,331.1 320.9,332.8 322.7,332.7 324.5,332.8 326.2,332.9 328.0,334.9 329.8,323.2 331.6,328.1 333.4,322.3 335.2,322.9 337.0,322.8 338.8,322.8 340.6,318.6 342.4,317.7 344.2,313.5 346.0,316.1 347.8,310.5 349.6,310.5 351.4,310.6 353.2,305.9 355.0,299.8 356.8,300.6 358.6,294.1 360.4,303.3 362.2,302.8 364.0,302.4 365.8,298.1 367.6,307.5 369.4,307.3 371.2,309.6 373.0,313.8 374.8,313.9 376.6,314.0 378.4,306.3 380.2,297.9 382.0,298.1 383.8,292.8 385.6,290.5 387.4,290.7 389.2,290.8 391.0,287.6 392.8,288.2 394.6,287.3 396.4,280.9 398.1,280.5 399.9,280.4 401.7,280.4 403.5,287.9 405.3,286.2 407.1,281.0 408.9,281.1 410.7,283.2 412.5,283.2 414.3,283.1 416.1,280.6 417.9,281.1 419.7,277.6 421.5,270.5 423.3,271.7 425.1,271.8 426.9,271.8 428.7,267.9 430.5,266.5 432.3,258.4 434.1,258.4 435.9,257.9 437.7,257.9 439.5,258.0 441.3,258.7 443.1,256.6 444.9,261.1 446.7,264.8 448.5,275.3 450.3,275.4 452.1,275.4 453.9,265.8 455.7,265.6 457.5,259.1 459.3,257.6 461.1,253.7 462.9,253.8 464.7,254.0 466.5,256.0 468.2,247.6 470.0,242.3 471.8,243.8 473.6,241.3 475.4,241.4 477.2,241.5 479.0,237.9 480.8,244.8 482.6,249.2 484.4,251.0 486.2,237.5 488.0,237.2 489.8,236.9 491.6,240.3 493.4,239.6 495.2,242.5 497.0,239.9 498.8,243.1 500.6,243.6 502.4,244.1 504.2,241.1 506.0,244.9 507.8,239.6 509.6,237.3 511.4,233.0 513.2,233.5 515.0,234.0 516.8,230.3 518.6,229.7 520.4,228.9 522.2,223.1 524.0,222.2 525.8,221.8 527.6,221.5 529.4,213.7 531.2,216.6 533.0,219.1 534.8,215.2 536.6,214.7 538.3,214.3 540.1,213.9 541.9,208.9 543.7,214.4 545.5,217.2 547.3,220.7 549.1,217.3 550.9,216.9 552.7,216.5 554.5,211.8 556.3,206.7 558.1,202.5 559.9,202.1 561.7,199.7 563.5,199.8 565.3,199.8 567.1,189.9 568.9,194.2 570.7,186.7 572.5,189.9 574.3,215.9 576.1,217.1 577.9,218.3 579.7,205.9 581.5,210.4 583.3,203.6 585.1,203.2 586.9,204.1 588.7,204.0 590.5,203.9 592.3,194.5 594.1,199.7 595.9,206.4 597.7,201.4 599.5,196.2 601.3,196.0 603.1,195.9 604.9,187.6 606.7,186.4 608.4,180.7 610.2,190.3 612.0,189.6 613.8,189.8 615.6,190.0 617.4,187.3 619.2,203.0 621.0,197.0 622.8,203.5 624.6,203.4 626.4,202.0 628.2,200.7 630.0,181.6 631.8,179.8 633.6,172.0 635.4,177.5 637.2,182.8 639.0,183.1 640.8,183.5 642.6,187.2 644.4,201.2 646.2,195.9 648.0,211.3 649.8,216.3 651.6,216.7 653.4,217.0 655.2,207.1 657.0,200.1 658.8,193.1 660.6,193.5 662.4,188.5 664.2,188.8 666.0,189.1 667.8,191.9 669.6,190.2 671.4,190.9 673.2,189.0 675.0,187.8 676.8,188.1 678.5,187.7 680.3,190.7 682.1,192.1 683.9,187.6 685.7,186.5 687.5,193.2 689.3,192.8 691.1,192.3 692.9,196.1 694.7,201.6 696.5,209.8 698.3,202.2 700.1,191.7 701.9,192.2 703.7,192.6 705.5,184.9 707.3,178.4 709.1,179.1 710.9,176.9 712.7,174.2 714.5,172.0 716.3,169.9 718.1,176.0 719.9,174.7 721.7,178.4 723.5,178.8 725.3,177.1 727.1,177.4 728.9,177.8 730.7,167.1 732.5,161.9 734.3,159.4 736.1,159.5 737.9,147.9 739.7,148.3 741.5,148.7 743.3,143.7 745.1,143.6 746.9,145.1 748.6,144.7 750.4,147.1 752.2,147.5 754.0,147.9 755.8,148.3 757.6,163.8 759.4,153.3 761.2,145.4 763.0,149.9 764.8,150.3 766.6,150.7 768.4,147.3 770.2,140.3 772.0,138.3 773.8,137.6 775.6,151.1 777.4,151.5 779.2,151.9 781.0,151.1 782.8,146.5 784.6,152.4 786.4,170.3 788.2,147.4 790.0,147.9 791.8,148.4 793.6,136.8 795.4,141.2 797.2,141.4 799.0,159.2 800.8,157.0 802.6,157.5 804.4,158.0 806.2,158.1 808.0,167.5 809.8,162.7 811.6,163.8 813.4,151.7 815.2,152.2 817.0,152.7 818.8,154.3 820.5,152.1 822.3,143.8 824.1,151.0 825.9,149.2 827.7,149.6 829.5,150.1 831.3,154.3 833.1,175.9 834.9,169.7 836.7,176.7 838.5,181.6 840.3,182.1 842.1,182.6 843.9,176.6 845.7,169.7 847.5,166.9 849.3,185.7 851.1,190.7 852.9,188.6 854.7,186.4 856.5,173.9 858.3,168.2 860.1,182.0 861.9,194.2 863.7,214.6 865.5,214.6 867.3,214.6 869.1,213.6 870.9,214.6 872.7,205.6 874.5,227.2 876.3,227.2 878.1,227.2 879.9,227.2 881.7,233.6 883.5,208.0 885.3,194.2 887.1,201.9 888.9,201.9 890.6,201.9 892.4,201.9 894.2,196.4 896.0,192.0 897.8,165.6 899.6,165.5 901.4,167.0 903.2,167.0 905.0,167.0 906.8,164.5 908.6,150.9 910.4,152.3 912.2,148.1 914.0,141.2 915.8,141.2 917.6,141.2 919.4,147.1 921.2,158.6 923.0,149.8 924.8,153.7 926.6,147.9 928.4,147.9 930.2,147.9 932.0,143.5 933.8,145.3 935.6,145.9 937.4,121.4 939.2,122.2 941.0,122.2 942.8,122.2 944.6,124.6 946.4,112.7 948.2,94.8 950.0,96.3 951.8,85.0 953.6,85.0 955.4,85.0 957.2,82.7 959.0,90.6 960.7,74.1 962.5,72.2 964.3,87.1 966.1,87.1 967.9,87.1 969.7,86.4 971.5,96.4 973.3,92.7 975.1,90.7 976.9,89.3 978.7,89.3 980.5,89.3 982.3,89.3 984.1,74.8 985.9,81.8 987.7,73.9 989.5,74.2 991.3,74.2 993.1,74.2 994.9,70.0 996.7,72.3 998.5,75.4 1000.3,74.8 1002.1,109.6 1003.9,109.6 1005.7,109.6 1007.5,103.2 1009.3,109.0 1011.1,131.7 1012.9,108.7 1014.7,102.3 1016.5,102.3 1018.3,102.3 1020.1,77.7 1021.9,84.5 1023.7,97.6 1025.5,87.0 1027.3,87.0 1029.1,87.0 1030.8,87.0 1032.6,96.3 1034.4,127.8 1036.2,130.4 1038.0,123.5 1039.8,129.2 1041.6,129.2 1043.4,129.2 1045.2,123.4 1047.0,117.5 1048.8,124.4 1050.6,125.0 1052.4,122.5 1054.2,122.5 1056.0,122.5 1057.8,107.7 1059.6,117.8 1061.4,120.0 1063.2,116.3 1065.0,115.3" fill="none" stroke="#111827" stroke-width="3" stroke-linejoin="round" stroke-linecap="round"/>
<circle cx="1065.0" cy="115.3" r="4" fill="#111827"/>
<rect x="80" y="525" width="16" height="3" fill="#111827"/>
<text x="104" y="530" font-family="Arial, sans-serif" font-size="13" fill="#111827">官方锚定细化曲线</text>
<polyline points="270.5,436.1 272.3,434.4 274.1,434.4 275.9,434.4 277.7,433.8 279.5,430.7 281.3,431.0 283.1,430.3 284.9,424.0 286.7,424.0 288.5,424.0 290.3,423.8 292.1,425.7 293.9,429.1 295.7,431.0 297.5,428.4 299.3,428.4 301.1,428.4 302.9,418.0 304.7,414.4 306.5,414.9 308.3,411.1 310.1,408.0 311.9,408.0 313.7,408.0 315.5,405.5 317.3,403.2 319.1,408.2 320.9,409.7 322.7,409.5 324.5,409.5 326.2,409.5 328.0,411.3 329.8,400.4 331.6,405.0 333.4,399.7 335.2,400.4 337.0,400.4 338.8,400.4 340.6,396.6 342.4,395.9 344.2,392.0 346.0,394.4 347.8,389.1 349.6,389.1 351.4,389.1 353.2,384.8 355.0,379.6 356.8,380.8 358.6,375.2 360.4,384.1 362.2,384.1 364.0,384.1 365.8,380.0 367.6,388.6 369.4,388.4 371.2,390.3 373.0,394.1 374.8,394.1 376.6,394.1 378.4,386.9 380.2,379.0 382.0,379.2 383.8,374.2 385.6,372.0 387.4,372.0 389.2,372.0 391.0,369.0 392.8,369.4 394.6,368.5 396.4,362.7 398.1,362.4 399.9,362.4 401.7,362.4 403.5,369.4 405.3,367.9 407.1,363.2 408.9,363.3 410.7,365.4 412.5,365.4 414.3,365.4 416.1,363.1 417.9,363.7 419.7,360.5 421.5,354.1 423.3,355.3 425.1,355.3 426.9,355.3 428.7,351.6 430.5,350.3 432.3,342.9 434.1,342.8 435.9,342.3 437.7,342.3 439.5,342.3 441.3,342.9 443.1,341.0 444.9,345.1 446.7,348.5 448.5,358.1 450.3,358.1 452.1,358.1 453.9,349.3 455.7,349.0 457.5,343.0 459.3,341.6 461.1,337.8 462.9,337.8 464.7,337.8 466.5,339.6 468.2,331.7 470.0,326.7 471.8,328.0 473.6,325.5 475.4,325.5 477.2,325.5 479.0,322.1 480.8,328.3 482.6,332.6 484.4,334.5 486.2,322.4 488.0,322.4 489.8,322.4 491.6,325.8 493.4,325.4 495.2,328.4 497.0,326.3 498.8,329.5 500.6,329.5 502.4,329.5 504.2,326.3 506.0,329.3 507.8,324.0 509.6,321.4 511.4,316.9 513.2,316.9 515.0,316.9 516.8,313.1 518.6,312.0 520.4,310.8 522.2,305.8 524.0,305.2 525.8,305.2 527.6,305.2 529.4,298.3 531.2,301.3 533.0,303.9 534.8,300.6 536.6,300.5 538.3,300.5 540.1,300.5 541.9,296.2 543.7,301.6 545.5,304.5 547.3,308.1 549.1,305.4 550.9,305.4 552.7,305.4 554.5,301.4 556.3,297.1 558.1,293.6 559.9,293.6 561.7,291.7 563.5,291.7 565.3,291.7 567.1,282.5 568.9,286.4 570.7,279.4 572.5,282.3 574.3,305.0 576.1,305.0 577.9,305.0 579.7,292.4 581.5,295.5 583.3,288.1 585.1,286.6 586.9,287.6 588.7,287.6 590.5,287.6 592.3,279.0 594.1,283.9 595.9,290.3 597.7,285.8 599.5,281.0 601.3,281.0 603.1,281.0 604.9,273.5 606.7,272.5 608.4,267.0 610.2,275.8 612.0,274.9 613.8,274.9 615.6,274.9 617.4,272.2 619.2,286.6 621.0,280.8 622.8,288.2 624.6,289.3 626.4,289.3 628.2,289.3 630.0,273.0 631.8,272.7 633.6,266.8 635.4,273.1 637.2,277.6 639.0,277.6 640.8,277.6 642.6,280.8 644.4,293.3 646.2,288.1 648.0,302.0 649.8,306.2 651.6,306.2 653.4,306.2 655.2,296.8 657.0,290.1 658.8,283.3 660.6,283.4 662.4,278.4 664.2,278.4 666.0,278.4 667.8,280.7 669.6,278.8 671.4,279.1 673.2,277.0 675.0,275.6 676.8,275.6 678.5,275.6 680.3,278.8 682.1,280.5 683.9,276.7 685.7,276.2 687.5,282.8 689.3,282.8 691.1,282.8 692.9,286.7 694.7,291.4 696.5,298.5 698.3,291.1 700.1,281.1 701.9,281.1 703.7,281.1 705.5,274.7 707.3,269.5 709.1,272.1 710.9,272.1 712.7,271.5 714.5,271.5 716.3,271.5 718.1,279.0 719.9,279.7 721.7,285.1 723.5,285.1 725.3,283.1 727.1,283.1 728.9,283.1 730.7,273.0 732.5,267.9 734.3,265.3 736.1,265.0 737.9,254.1 739.7,254.1 741.5,254.1 743.3,249.2 745.1,248.7 746.9,249.7 748.6,248.9 750.4,250.8 752.2,250.8 754.0,250.8 755.8,250.8 757.6,264.5 759.4,254.6 761.2,247.0 763.0,250.7 764.8,250.7 766.6,250.7 768.4,247.2 770.2,240.5 772.0,238.3 773.8,237.3 775.6,249.3 777.4,249.3 779.2,249.3 781.0,248.1 782.8,243.6 784.6,248.6 786.4,264.7 788.2,243.3 790.0,243.3 791.8,243.3 793.6,232.2 795.4,235.8 797.2,235.5 799.0,251.4 800.8,249.0 802.6,249.0 804.4,249.0 806.2,248.7 808.0,256.9 809.8,252.0 811.6,252.6 813.4,241.0 815.2,241.0 817.0,241.0 818.8,242.0 820.5,239.5 822.3,231.4 824.1,237.6 825.9,235.5 827.7,235.5 829.5,235.5 831.3,238.8 833.1,258.5 834.9,252.3 836.7,258.3 838.5,262.5 840.3,262.5 842.1,262.5 843.9,256.5 845.7,252.1 847.5,251.5 849.3,271.0 851.1,277.7 852.9,277.7 854.7,277.7 856.5,266.2 858.3,261.0 860.1,273.6 861.9,284.9 863.7,303.6 865.5,303.6 867.3,303.6 869.1,302.8 870.9,303.7 872.7,295.4 874.5,315.3 876.3,315.2 878.1,315.2 879.9,315.2 881.7,321.1 883.5,297.6 885.3,284.9 887.1,292.0 888.9,292.0 890.6,292.0 892.4,292.0 894.2,286.9 896.0,282.9 897.8,258.6 899.6,258.5 901.4,259.9 903.2,259.9 905.0,259.9 906.8,257.6 908.6,245.0 910.4,246.3 912.2,242.5 914.0,236.2 915.8,236.2 917.6,236.2 919.4,241.6 921.2,252.1 923.0,244.0 924.8,247.6 926.6,242.3 928.4,242.3 930.2,242.3 932.0,238.3 933.8,239.9 935.6,240.4 937.4,218.0 939.2,218.7 941.0,218.7 942.8,218.7 944.6,220.8 946.4,210.0 948.2,193.5 950.0,194.9 951.8,184.5 953.6,184.5 955.4,184.5 957.2,182.3 959.0,189.6 960.7,174.5 962.5,172.7 964.3,186.4 966.1,186.4 967.9,186.4 969.7,185.7 971.5,195.0 973.3,191.6 975.1,189.7 976.9,188.4 978.7,188.4 980.5,188.4 982.3,188.4 984.1,175.1 985.9,181.6 987.7,174.3 989.5,174.5 991.3,174.5 993.1,174.5 994.9,170.7 996.7,172.8 998.5,175.7 1000.3,175.1 1002.1,207.1 1003.9,207.1 1005.7,207.1 1007.5,201.3 1009.3,206.5 1011.1,227.4 1012.9,206.2 1014.7,200.4 1016.5,200.4 1018.3,200.4 1020.1,177.8 1021.9,184.0 1023.7,196.0 1025.5,186.3 1027.3,186.3 1029.1,186.3 1030.8,186.3 1032.6,194.8 1034.4,223.8 1036.2,226.2 1038.0,219.9 1039.8,225.1 1041.6,225.1 1043.4,225.1 1045.2,219.8 1047.0,214.3 1048.8,220.7 1050.6,221.3 1052.4,219.0 1054.2,219.0 1056.0,219.0 1057.8,205.3 1059.6,214.7 1061.4,216.7 1063.2,213.3 1065.0,212.3" fill="none" stroke="#2563eb" stroke-width="3" stroke-linejoin="round" stroke-linecap="round"/>
<circle cx="1065.0" cy="212.3" r="4" fill="#2563eb"/>
<rect x="330" y="525" width="16" height="3" fill="#2563eb"/>
<text x="354" y="530" font-family="Arial, sans-serif" font-size="13" fill="#111827">国际版持仓重建</text>
<polyline points="820.5,436.1 822.3,427.3 824.1,432.9 825.9,432.0 827.7,432.0 829.5,432.0 831.3,430.3 833.1,450.6 834.9,442.3 836.7,448.0 838.5,452.1 840.3,452.1 842.1,452.1 843.9,445.7 845.7,443.0 847.5,438.8 849.3,445.4 851.1,449.2 852.9,449.2 854.7,449.2 856.5,444.9 858.3,443.2 860.1,451.0 861.9,456.4 863.7,467.9 865.5,467.9 867.3,467.9 869.1,466.6 870.9,464.1 872.7,455.6 874.5,465.8 876.3,463.6 878.1,463.6 879.9,463.6 881.7,465.2 883.5,453.7 885.3,452.0 887.1,454.7 888.9,454.7 890.6,454.7 892.4,454.7 894.2,454.0 896.0,453.0 897.8,442.9 899.6,444.8 901.4,443.9 903.2,443.9 905.0,443.9 906.8,441.0 908.6,436.4 910.4,438.1 912.2,434.4 914.0,432.8 915.8,432.8 917.6,432.8 919.4,435.1 921.2,441.0 923.0,433.7 924.8,435.8 926.6,433.2 928.4,433.2 930.2,433.2 932.0,434.2 933.8,434.7 935.6,432.2 937.4,425.0 939.2,425.6 941.0,425.6 942.8,425.6 944.6,428.3 946.4,422.6 948.2,417.4 950.0,421.4 951.8,416.0 953.6,416.0 955.4,416.0 957.2,407.3 959.0,407.8 960.7,402.5 962.5,404.3 964.3,410.2 966.1,410.2 967.9,410.2 969.7,408.8 971.5,411.7 973.3,408.8 975.1,411.7 976.9,410.3 978.7,410.3 980.5,410.3 982.3,410.3 984.1,406.8 985.9,411.4 987.7,408.6 989.5,408.2 991.3,408.2 993.1,408.2 994.9,410.2 996.7,403.4 998.5,402.5 1000.3,402.5 1002.1,424.4 1003.9,424.4 1005.7,424.4 1007.5,421.1 1009.3,425.3 1011.1,434.0 1012.9,424.3 1014.7,420.2 1016.5,420.2 1018.3,420.2 1020.1,411.7 1021.9,415.2 1023.7,419.3 1025.5,413.9 1027.3,413.9 1029.1,413.9 1030.8,413.9 1032.6,409.7 1034.4,426.5 1036.2,432.6 1038.0,426.5 1039.8,431.0 1041.6,431.0 1043.4,431.0 1045.2,427.5" fill="none" stroke="#dc2626" stroke-width="3" stroke-linejoin="round" stroke-linecap="round"/>
<circle cx="1045.2" cy="427.5" r="4" fill="#dc2626"/>
<rect x="580" y="525" width="16" height="3" fill="#dc2626"/>
<text x="604" y="530" font-family="Arial, sans-serif" font-size="13" fill="#111827">内地版代理口径</text>
</svg>