<svg xmlns="http://www.w3.org/2000/svg" width="1100" height="560" viewBox="0 0 1100 560">
<rect width="100%" height="100%" fill="#ffffff"/>
<text x="80" y="30" font-family="Arial, sans-serif" font-size="22" font-weight="700" fill="#111827">Deepvan 组合净值曲线</text>
<text x="80" y="52" font-family="Arial, sans-serif" font-size="13" fill="#6b7280">黑线为原文官方净值点；蓝线为国际版持仓重建；红线为内地版代理口径。</text>
<line x1="80" y1="485.0" x2="1065" y2="485.0" stroke="#e5e7eb" stroke-width="1"/>
<text x="70" y="489.0" text-anchor="end" font-family="Arial, sans-serif" font-size="12" fill="#6b7280">0.94</text>
<line x1="80" y1="397.0" x2="1065" y2="397.0" stroke="#e5e7eb" stroke-width="1"/>
<text x="70" y="401.0" text-anchor="end" font-family="Arial, sans-serif" font-size="12" fill="#6b7280">1.03</text>
<line x1="80" y1="309.0" x2="1065" y2="309.0" stroke="#e5e7eb" stroke-width="1"/>
<text x="70" y="313.0" text-anchor="end" font-family="Arial, sans-serif" font-size="12" fill="#6b7280">1.11</text>
<line x1="80" y1="221.0" x2="1065" y2="221.0" stroke="#e5e7eb" stroke-width="1"/>
<text x="70" y="225.0" text-anchor="end" font-family="Arial, sans-serif" font-size="12" fill="#6b7280">1.19</text>
<line x1="80" y1="133.0" x2="1065" y2="133.0" stroke="#e5e7eb" stroke-width="1"/>
<text x="70" y="137.0" text-anchor="end" font-family="Arial, sans-serif" font-size="12" fill="#6b7280">1.27</text>
<line x1="80" y1="45.0" x2="1065" y2="45.0" stroke="#e5e7eb" stroke-width="1"/>
<text x="70" y="49.0" text-anchor="end" font-family="Arial, sans-serif" font-size="12" fill="#6b7280">1.35</text>
<line x1="80.0" y1="45" x2="80.0" y2="485" stroke="#f3f4f6" stroke-width="1"/>
<text x="80.0" y="510" text-anchor="middle" font-family="Arial, sans-serif" font-size="12" fill="#6b7280">2025-01-08</text>
<line x1="326.2" y1="45" x2="326.2" y2="485" stroke="#f3f4f6" stroke-width="1"/>
<text x="326.2" y="510" text-anchor="middle" font-family="Arial, sans-serif" font-size="12" fill="#6b7280">2025-05-25</text>
<line x1="572.5" y1="45" x2="572.5" y2="485" stroke="#f3f4f6" stroke-width="1"/>
<text x="572.5" y="510" text-anchor="middle" font-family="Arial, sans-serif" font-size="12" fill="#6b7280">2025-10-09</text>
<line x1="818.8" y1="45" x2="818.8" y2="485" stroke="#f3f4f6" stroke-width="1"/>
<text x="818.8" y="510" text-anchor="middle" font-family="Arial, sans-serif" font-size="12" fill="#6b7280">2026-02-23</text>
<line x1="1065.0" y1="45" x2="1065.0" y2="485" stroke="#f3f4f6" stroke-width="1"/>
<text x="1065.0" y="510" text-anchor="middle" font-family="Arial, sans-serif" font-size="12" fill="#6b7280">2026-07-10</text>
<line x1="80" y1="485" x2="1065" y2="485" stroke="#9ca3af"/>
<line x1="80" y1="45" x2="80" y2="485" stroke="#9ca3af"/>
<polyline points="80.0,353.1 306.5,305.6 329.8,287.8 344.2,276.0 353.2,262.5 394.6,244.1 423.3,225.1 459.3,207.9 480.8,192.3 498.8,190.2 520.4,172.9 561.7,137.3 572.5,125.4 606.7,121.1 635.4,110.3 676.8,123.3 692.9,133.0 703.7,128.7 721.7,111.4 788.2,73.6" fill="none" stroke="#111827" stroke-width="3" stroke-linejoin="round" stroke-linecap="round"/>
<circle cx="788.2" cy="73.6" r="4" fill="#111827"/>
<rect x="80" y="525" width="16" height="3" fill="#111827"/>
<text x="104" y="530" font-family="Arial, sans-serif" font-size="13" fill="#111827">叫兽指数官方净值点</text>
<polyline points="270.5,425.4 272.3,423.4 274.1,423.4 275.9,423.4 277.7,422.5 279.5,418.8 281.3,419.2 283.1,418.3 284.9,410.7 286.7,410.7 288.5,410.7 290.3,410.4 292.1,412.8 293.9,416.9 295.7,419.2 297.5,416.0 299.3,416.0 301.1,416.0 302.9,403.3 304.7,398.9 306.5,399.6 308.3,394.9 310.1,391.2 311.9,391.2 313.7,391.2 315.5,388.1 317.3,385.4 319.1,391.4 320.9,393.2 322.7,393.0 324.5,393.0 326.2,393.0 328.0,395.2 329.8,381.9 331.6,387.5 333.4,381.1 335.2,381.9 337.0,381.9 338.8,381.9 340.6,377.3 342.4,376.4 344.2,371.7 346.0,374.6 347.8,368.2 349.6,368.2 351.4,368.2 353.2,362.9 355.0,356.6 356.8,358.0 358.6,351.2 360.4,362.0 362.2,362.0 364.0,362.0 365.8,357.1 367.6,367.5 369.4,367.2 371.2,369.6 373.0,374.2 374.8,374.2 376.6,374.2 378.4,365.5 380.2,355.9 382.0,356.0 383.8,350.0 385.6,347.3 387.4,347.3 389.2,347.3 391.0,343.6 392.8,344.1 394.6,343.1 396.4,335.9 398.1,335.6 399.9,335.6 401.7,335.6 403.5,344.1 405.3,342.3 407.1,336.6 408.9,336.7 410.7,339.2 412.5,339.2 414.3,339.2 416.1,336.5 417.9,337.2 419.7,333.3 421.5,325.4 423.3,326.9 425.1,326.9 426.9,326.9 428.7,322.5 430.5,320.9 432.3,311.8 434.1,311.7 435.9,311.1 437.7,311.1 439.5,311.1 441.3,311.9 443.1,309.5 444.9,314.5 446.7,318.6 448.5,330.4 450.3,330.4 452.1,330.4 453.9,319.6 455.7,319.3 457.5,312.0 459.3,310.2 461.1,305.7 462.9,305.7 464.7,305.7 466.5,307.8 468.2,298.2 470.0,292.1 471.8,293.7 473.6,290.7 475.4,290.7 477.2,290.7 479.0,286.5 480.8,294.1 482.6,299.3 484.4,301.7 486.2,286.8 488.0,286.8 489.8,286.8 491.6,291.0 493.4,290.6 495.2,294.1 497.0,291.6 498.8,295.5 500.6,295.5 502.4,295.5 504.2,291.6 506.0,295.3 507.8,288.8 509.6,285.6 511.4,280.2 513.2,280.2 515.0,280.2 516.8,275.5 518.6,274.2 520.4,272.7 522.2,266.6 524.0,265.9 525.8,265.9 527.6,265.9 529.4,257.5 531.2,261.2 533.0,264.3 534.8,260.3 536.6,260.1 538.3,260.1 540.1,260.1 541.9,254.9 543.7,261.6 545.5,265.1 547.3,269.4 549.1,266.1 550.9,266.1 552.7,266.1 554.5,261.2 556.3,256.0 558.1,251.7 559.9,251.8 561.7,249.5 563.5,249.5 565.3,249.5 567.1,238.3 568.9,243.0 570.7,234.4 572.5,238.0 574.3,265.7 576.1,265.7 577.9,265.7 579.7,250.4 581.5,254.0 583.3,245.0 585.1,243.2 586.9,244.4 588.7,244.4 590.5,244.4 592.3,234.0 594.1,240.0 595.9,247.7 597.7,242.2 599.5,236.5 601.3,236.5 603.1,236.5 604.9,227.3 606.7,226.0 608.4,219.4 610.2,230.0 612.0,229.0 613.8,229.0 615.6,229.0 617.4,225.7 619.2,243.2 621.0,236.2 622.8,245.1 624.6,246.5 626.4,246.5 628.2,246.5 630.0,226.7 631.8,226.2 633.6,219.1 635.4,226.8 637.2,232.3 639.0,232.3 640.8,232.3 642.6,236.1 644.4,251.4 646.2,245.1 648.0,262.0 649.8,267.2 651.6,267.2 653.4,267.2 655.2,255.6 657.0,247.5 658.8,239.2 660.6,239.3 662.4,233.3 664.2,233.3 666.0,233.3 667.8,236.0 669.6,233.7 671.4,234.1 673.2,231.6 675.0,229.8 676.8,229.8 678.5,229.8 680.3,233.7 682.1,235.8 683.9,231.2 685.7,230.5 687.5,238.6 689.3,238.6 691.1,238.6 692.9,243.4 694.7,249.0 696.5,257.7 698.3,248.8 700.1,236.5 701.9,236.5 703.7,236.5 705.5,228.8 707.3,222.4 709.1,225.5 710.9,225.5 712.7,224.8 714.5,224.8 716.3,224.8 718.1,233.9 719.9,234.8 721.7,241.3 723.5,241.3 725.3,239.0 727.1,239.0 728.9,239.0 730.7,226.7 732.5,220.4 734.3,217.3 736.1,216.9 737.9,203.6 739.7,203.6 741.5,203.6 743.3,197.6 745.1,197.0 746.9,198.2 748.6,197.3 750.4,199.6 752.2,199.6 754.0,199.6 755.8,199.6 757.6,216.4 759.4,204.3 761.2,194.9 763.0,199.5 764.8,199.5 766.6,199.5 768.4,195.2 770.2,187.0 772.0,184.3 773.8,183.2 775.6,197.7 777.4,197.7 779.2,197.7 781.0,196.4 782.8,190.8 784.6,197.0 786.4,216.6 788.2,190.5 790.0,190.5 791.8,190.5 793.6,177.0 795.4,181.3 797.2,180.9 799.0,200.4 800.8,197.4 802.6,197.4 804.4,197.4 806.2,197.0 808.0,207.0 809.8,201.1 811.6,201.8 813.4,187.6 815.2,187.6 817.0,187.6 818.8,188.9 820.5,185.8 822.3,176.0 824.1,183.6 825.9,180.9 827.7,180.9 829.5,180.9 831.3,185.0 833.1,208.9 834.9,201.4 836.7,208.7 838.5,213.8 840.3,213.8 842.1,213.8 843.9,206.5 845.7,201.2 847.5,200.5 849.3,224.3 851.1,232.4 852.9,232.4 854.7,232.4 856.5,218.4 858.3,212.0 860.1,227.4 861.9,241.1 863.7,264.0 865.5,264.0 867.3,264.0 869.1,262.9 870.9,264.0 872.7,254.0 874.5,278.2 876.3,278.1 878.1,278.1 879.9,278.1 881.7,285.3 883.5,256.6 885.3,241.1 887.1,249.8 888.9,249.8 890.6,249.8 892.4,249.8 894.2,243.6 896.0,238.7 897.8,209.1 899.6,209.0 901.4,210.7 903.2,210.7 905.0,210.7 906.8,207.9 908.6,192.6 910.4,194.1 912.2,189.5 914.0,181.8 915.8,181.8 917.6,181.8 919.4,188.4 921.2,201.2 923.0,191.4 924.8,195.7 926.6,189.3 928.4,189.3 930.2,189.3 932.0,184.4 933.8,186.4 935.6,187.0 937.4,159.6 939.2,160.5 941.0,160.5 942.8,160.5 944.6,163.1 946.4,149.9 948.2,129.8 950.0,131.5 951.8,118.8 953.6,118.8 955.4,118.8 957.2,116.2 959.0,125.1 960.7,106.6 962.5,104.4 964.3,121.1 966.1,121.1 967.9,121.1 969.7,120.3 971.5,131.6 973.3,127.4 975.1,125.2 976.9,123.6 978.7,123.6 980.5,123.6 982.3,123.6 984.1,107.4 985.9,115.2 987.7,106.3 989.5,106.7 991.3,106.7 993.1,106.7 994.9,102.0 996.7,104.6 998.5,108.0 1000.3,107.4 1002.1,146.3 1003.9,146.3 1005.7,146.3 1007.5,139.2 1009.3,145.6 1011.1,171.1 1012.9,145.3 1014.7,138.2 1016.5,138.2 1018.3,138.2 1020.1,110.6 1021.9,118.2 1023.7,132.9 1025.5,121.1 1027.3,121.1 1029.1,121.1 1030.8,121.1 1032.6,131.4 1034.4,166.7 1036.2,169.6 1038.0,161.9 1039.8,168.3 1041.6,168.3 1043.4,168.3 1045.2,161.8 1047.0,155.2 1048.8,162.9 1050.6,163.7 1052.4,160.8 1054.2,160.8 1056.0,160.8 1057.8,144.2 1059.6,155.6 1061.4,158.0 1063.2,153.9 1065.0,152.7" fill="none" stroke="#2563eb" stroke-width="3" stroke-linejoin="round" stroke-linecap="round"/>
<circle cx="1065.0" cy="152.7" r="4" fill="#2563eb"/>
<rect x="330" y="525" width="16" height="3" fill="#2563eb"/>
<text x="354" y="530" font-family="Arial, sans-serif" font-size="13" fill="#111827">国际版持仓重建</text>
<polyline points="820.5,425.4 822.3,414.7 824.1,421.5 825.9,420.4 827.7,420.4 829.5,420.4 831.3,418.4 833.1,443.1 834.9,433.0 836.7,439.9 838.5,444.9 840.3,444.9 842.1,444.9 843.9,437.2 845.7,433.8 847.5,428.7 849.3,436.8 851.1,441.4 852.9,441.4 854.7,441.4 856.5,436.1 858.3,434.1 860.1,443.5 861.9,450.1 863.7,464.2 865.5,464.2 867.3,464.2 869.1,462.6 870.9,459.5 872.7,449.1 874.5,461.7 876.3,458.9 878.1,458.9 879.9,458.9 881.7,460.8 883.5,446.8 885.3,444.7 887.1,448.1 888.9,448.1 890.6,448.1 892.4,448.1 894.2,447.2 896.0,446.0 897.8,433.7 899.6,436.0 901.4,434.9 903.2,434.9 905.0,434.9 906.8,431.4 908.6,425.8 910.4,427.8 912.2,423.4 914.0,421.4 915.8,421.4 917.6,421.4 919.4,424.2 921.2,431.4 923.0,422.4 924.8,425.1 926.6,421.9 928.4,421.9 930.2,421.9 932.0,423.1 933.8,423.7 935.6,420.7 937.4,411.9 939.2,412.6 941.0,412.6 942.8,412.6 944.6,415.9 946.4,408.9 948.2,402.6 950.0,407.5 951.8,400.9 953.6,400.9 955.4,400.9 957.2,390.4 959.0,391.0 960.7,384.5 962.5,386.6 964.3,393.8 966.1,393.8 967.9,393.8 969.7,392.1 971.5,395.7 973.3,392.1 975.1,395.7 976.9,394.0 978.7,394.0 980.5,394.0 982.3,394.0 984.1,389.7 985.9,395.3 987.7,391.9 989.5,391.4 991.3,391.4 993.1,391.4 994.9,393.9 996.7,385.5 998.5,384.4 1000.3,384.5 1002.1,411.1 1003.9,411.1 1005.7,411.1 1007.5,407.2 1009.3,412.2 1011.1,422.9 1012.9,411.0 1014.7,406.1 1016.5,406.1 1018.3,406.1 1020.1,395.6 1021.9,400.0 1023.7,405.0 1025.5,398.3 1027.3,398.3 1029.1,398.3 1030.8,398.3 1032.6,393.3 1034.4,413.7 1036.2,421.2 1038.0,413.7 1039.8,419.2 1041.6,419.2 1043.4,419.2 1045.2,414.9" fill="none" stroke="#dc2626" stroke-width="3" stroke-linejoin="round" stroke-linecap="round"/>
<circle cx="1045.2" cy="414.9" r="4" fill="#dc2626"/>
<rect x="580" y="525" width="16" height="3" fill="#dc2626"/>
<text x="604" y="530" font-family="Arial, sans-serif" font-size="13" fill="#111827">内地版代理口径</text>
</svg>