<svg xmlns="http://www.w3.org/2000/svg" width="1100" height="560" viewBox="0 0 1100 560">
<rect width="100%" height="100%" fill="#ffffff"/>
<text x="80" y="30" font-family="Arial, sans-serif" font-size="22" font-weight="700" fill="#111827">Deepvan 组合净值曲线</text>
<text x="80" y="52" font-family="Arial, sans-serif" font-size="13" fill="#6b7280">国际版为完整 OCR 持仓回测；内地版为 OCR 明确权重的代理口径。</text>
<line x1="80" y1="485.0" x2="1065" y2="485.0" stroke="#e5e7eb" stroke-width="1"/>
<text x="70" y="489.0" text-anchor="end" font-family="Arial, sans-serif" font-size="12" fill="#6b7280">0.94</text>
<line x1="80" y1="397.0" x2="1065" y2="397.0" stroke="#e5e7eb" stroke-width="1"/>
<text x="70" y="401.0" text-anchor="end" font-family="Arial, sans-serif" font-size="12" fill="#6b7280">1.02</text>
<line x1="80" y1="309.0" x2="1065" y2="309.0" stroke="#e5e7eb" stroke-width="1"/>
<text x="70" y="313.0" text-anchor="end" font-family="Arial, sans-serif" font-size="12" fill="#6b7280">1.10</text>
<line x1="80" y1="221.0" x2="1065" y2="221.0" stroke="#e5e7eb" stroke-width="1"/>
<text x="70" y="225.0" text-anchor="end" font-family="Arial, sans-serif" font-size="12" fill="#6b7280">1.17</text>
<line x1="80" y1="133.0" x2="1065" y2="133.0" stroke="#e5e7eb" stroke-width="1"/>
<text x="70" y="137.0" text-anchor="end" font-family="Arial, sans-serif" font-size="12" fill="#6b7280">1.25</text>
<line x1="80" y1="45.0" x2="1065" y2="45.0" stroke="#e5e7eb" stroke-width="1"/>
<text x="70" y="49.0" text-anchor="end" font-family="Arial, sans-serif" font-size="12" fill="#6b7280">1.33</text>
<line x1="80.0" y1="45" x2="80.0" y2="485" stroke="#f3f4f6" stroke-width="1"/>
<text x="80.0" y="510" text-anchor="middle" font-family="Arial, sans-serif" font-size="12" fill="#6b7280">2025-04-24</text>
<line x1="325.1" y1="45" x2="325.1" y2="485" stroke="#f3f4f6" stroke-width="1"/>
<text x="325.1" y="510" text-anchor="middle" font-family="Arial, sans-serif" font-size="12" fill="#6b7280">2025-08-12</text>
<line x1="572.5" y1="45" x2="572.5" y2="485" stroke="#f3f4f6" stroke-width="1"/>
<text x="572.5" y="510" text-anchor="middle" font-family="Arial, sans-serif" font-size="12" fill="#6b7280">2025-12-01</text>
<line x1="819.9" y1="45" x2="819.9" y2="485" stroke="#f3f4f6" stroke-width="1"/>
<text x="819.9" y="510" text-anchor="middle" font-family="Arial, sans-serif" font-size="12" fill="#6b7280">2026-03-22</text>
<line x1="1065.0" y1="45" x2="1065.0" y2="485" stroke="#f3f4f6" stroke-width="1"/>
<text x="1065.0" y="510" text-anchor="middle" font-family="Arial, sans-serif" font-size="12" fill="#6b7280">2026-07-10</text>
<line x1="80" y1="485" x2="1065" y2="485" stroke="#9ca3af"/>
<line x1="80" y1="45" x2="80" y2="485" stroke="#9ca3af"/>
<polyline points="80.0,421.2 82.2,419.0 84.5,419.0 86.7,419.0 88.9,418.2 91.1,414.2 93.4,414.6 95.6,413.6 97.8,405.5 100.1,405.5 102.3,405.5 104.5,405.2 106.7,407.7 109.0,412.1 111.2,414.5 113.4,411.1 115.7,411.1 117.9,411.1 120.1,397.6 122.3,392.9 124.6,393.6 126.8,388.6 129.0,384.6 131.3,384.6 133.5,384.6 135.7,381.3 137.9,378.4 140.2,384.8 142.4,386.8 144.6,386.5 146.9,386.5 149.1,386.5 151.3,388.9 153.5,374.6 155.8,380.7 158.0,373.7 160.2,374.6 162.5,374.6 164.7,374.6 166.9,369.7 169.1,368.7 171.4,363.7 173.6,366.8 175.8,360.0 178.1,360.0 180.3,360.0 182.5,354.3 184.7,347.6 187.0,349.1 189.2,341.8 191.4,353.4 193.7,353.4 195.9,353.4 198.1,348.1 200.3,359.3 202.6,358.9 204.8,361.5 207.0,366.4 209.3,366.4 211.5,366.4 213.7,357.0 215.9,346.8 218.2,347.0 220.4,340.5 222.6,337.6 224.9,337.6 227.1,337.6 229.3,333.6 231.5,334.2 233.8,333.1 236.0,325.4 238.2,325.1 240.5,325.1 242.7,325.1 244.9,334.2 247.1,332.2 249.4,326.1 251.6,326.3 253.8,329.0 256.1,329.0 258.3,329.0 260.5,326.0 262.7,326.8 265.0,322.6 267.2,314.2 269.4,315.8 271.7,315.8 273.9,315.8 276.1,311.0 278.3,309.3 280.6,299.6 282.8,299.5 285.0,298.9 287.3,298.9 289.5,298.9 291.7,299.7 293.9,297.1 296.2,302.5 298.4,306.9 300.6,319.5 302.9,319.5 305.1,319.5 307.3,307.9 309.5,307.6 311.8,299.8 314.0,297.9 316.2,293.0 318.5,293.0 320.7,293.0 322.9,295.4 325.1,285.0 327.4,278.5 329.6,280.2 331.8,277.0 334.0,277.0 336.3,277.0 338.5,272.5 340.7,280.6 343.0,286.3 345.2,288.7 347.4,272.9 349.6,272.9 351.9,272.9 354.1,277.3 356.3,276.9 358.6,280.7 360.8,278.0 363.0,282.1 365.2,282.1 367.5,282.1 369.7,278.0 371.9,281.9 374.2,274.9 376.4,271.5 378.6,265.8 380.8,265.8 383.1,265.8 385.3,260.8 387.5,259.4 389.8,257.8 392.0,251.2 394.2,250.5 396.4,250.5 398.7,250.5 400.9,241.4 403.1,245.4 405.4,248.8 407.6,244.5 409.8,244.3 412.0,244.3 414.3,244.3 416.5,238.7 418.7,245.8 421.0,249.6 423.2,254.3 425.4,250.7 427.6,250.7 429.9,250.7 432.1,245.5 434.3,239.9 436.6,235.3 438.8,235.4 441.0,232.9 443.2,232.9 445.5,232.9 447.7,220.9 449.9,226.0 452.2,216.8 454.4,220.6 456.6,250.2 458.8,250.2 461.1,250.2 463.3,233.8 465.5,237.8 467.8,228.1 470.0,226.2 472.2,227.5 474.4,227.5 476.7,227.5 478.9,216.3 481.1,222.7 483.4,231.0 485.6,225.1 487.8,219.0 490.0,219.0 492.3,219.0 494.5,209.1 496.7,207.8 499.0,200.7 501.2,212.1 503.4,211.0 505.6,211.0 507.9,211.0 510.1,207.4 512.3,226.2 514.6,218.7 516.8,228.2 519.0,229.7 521.2,229.7 523.5,229.7 525.7,208.5 527.9,208.0 530.2,200.4 532.4,208.6 534.6,214.5 536.8,214.5 539.1,214.5 541.3,218.6 543.5,234.9 545.8,228.2 548.0,246.2 550.2,251.8 552.4,251.8 554.7,251.8 556.9,239.5 559.1,230.8 561.4,221.9 563.6,222.0 565.8,215.5 568.0,215.5 570.3,215.5 572.5,218.5 574.7,216.0 577.0,216.5 579.2,213.7 581.4,211.9 583.6,211.9 585.9,211.9 588.1,216.0 590.3,218.2 592.6,213.4 594.8,212.6 597.0,221.3 599.2,221.3 601.5,221.3 603.7,226.4 605.9,232.4 608.2,241.7 610.4,232.1 612.6,219.0 614.8,219.0 617.1,219.0 619.3,210.7 621.5,203.9 623.8,207.3 626.0,207.3 628.2,206.5 630.4,206.5 632.7,206.5 634.9,216.2 637.1,217.2 639.4,224.2 641.6,224.2 643.8,221.6 646.0,221.6 648.3,221.6 650.5,208.5 652.7,201.8 655.0,198.4 657.2,198.0 659.4,183.8 661.6,183.8 663.9,183.8 666.1,177.4 668.3,176.7 670.6,178.0 672.8,177.1 675.0,179.5 677.2,179.5 679.5,179.5 681.7,179.5 683.9,197.4 686.2,184.5 688.4,174.5 690.6,179.4 692.8,179.4 695.1,179.4 697.3,174.8 699.5,166.0 701.8,163.1 704.0,161.9 706.2,177.5 708.4,177.5 710.7,177.5 712.9,176.0 715.1,170.1 717.4,176.7 719.6,197.7 721.8,169.7 724.0,169.7 726.3,169.7 728.5,155.3 730.7,159.9 733.0,159.5 735.2,180.3 737.4,177.1 739.6,177.1 741.9,177.1 744.1,176.7 746.3,187.4 748.6,181.1 750.8,181.8 753.0,166.7 755.2,166.7 757.5,166.7 759.7,168.0 761.9,164.7 764.2,154.2 766.4,162.3 768.6,159.5 770.8,159.5 773.1,159.5 775.3,163.9 777.5,189.5 779.8,181.4 782.0,189.3 784.2,194.7 786.4,194.7 788.7,194.7 790.9,186.9 793.1,181.2 795.4,180.5 797.6,205.9 799.8,214.6 802.0,214.6 804.3,214.6 806.5,199.6 808.7,192.8 811.0,209.3 813.2,224.0 815.4,248.4 817.6,248.4 819.9,248.4 822.1,247.3 824.3,248.5 826.5,237.7 828.8,263.6 831.0,263.5 833.2,263.5 835.5,263.5 837.7,271.2 839.9,240.5 842.1,223.9 844.4,233.2 846.6,233.2 848.8,233.2 851.1,233.2 853.3,226.6 855.5,221.4 857.7,189.6 860.0,189.5 862.2,191.3 864.4,191.3 866.7,191.3 868.9,188.4 871.1,172.0 873.3,173.7 875.6,168.7 877.8,160.4 880.0,160.4 882.3,160.4 884.5,167.5 886.7,181.2 888.9,170.7 891.2,175.3 893.4,168.5 895.6,168.5 897.9,168.5 900.1,163.2 902.3,165.3 904.5,166.0 906.8,136.7 909.0,137.6 911.2,137.6 913.5,137.6 915.7,140.4 917.9,126.3 920.1,104.8 922.4,106.6 924.6,93.0 926.8,93.0 929.1,93.0 931.3,90.2 933.5,99.7 935.7,80.0 938.0,77.6 940.2,95.5 942.4,95.5 944.7,95.5 946.9,94.6 949.1,106.7 951.3,102.2 953.6,99.9 955.8,98.1 958.0,98.1 960.3,98.1 962.5,98.1 964.7,80.8 966.9,89.2 969.2,79.7 971.4,80.0 973.6,80.0 975.9,80.0 978.1,75.0 980.3,77.8 982.5,81.5 984.8,80.8 987.0,122.4 989.2,122.4 991.5,122.4 993.7,114.9 995.9,121.7 998.1,148.9 1000.4,121.4 1002.6,113.7 1004.8,113.7 1007.1,113.7 1009.3,84.3 1011.5,92.3 1013.7,108.1 1016.0,95.4 1018.2,95.4 1020.4,95.4 1022.7,95.4 1024.9,106.5 1027.1,144.3 1029.3,147.4 1031.6,139.2 1033.8,146.0 1036.0,146.0 1038.3,146.0 1040.5,139.0 1042.7,131.9 1044.9,140.2 1047.2,141.0 1049.4,138.0 1051.6,138.0 1053.9,138.0 1056.1,120.2 1058.3,132.4 1060.5,135.0 1062.8,130.6 1065.0,129.3" fill="none" stroke="#2563eb" stroke-width="3" stroke-linejoin="round" stroke-linecap="round"/>
<circle cx="1065.0" cy="129.3" r="4" fill="#2563eb"/>
<rect x="80" y="525" width="16" height="3" fill="#2563eb"/>
<text x="104" y="530" font-family="Arial, sans-serif" font-size="13" fill="#111827">叫兽指数国际版/全球版</text>
<polyline points="761.9,421.2 764.2,409.8 766.4,417.0 768.6,415.8 770.8,415.8 773.1,415.8 775.3,413.7 777.5,440.2 779.8,429.4 782.0,436.7 784.2,442.0 786.4,442.0 788.7,442.0 790.9,433.8 793.1,430.2 795.4,424.7 797.6,433.4 799.8,438.3 802.0,438.3 804.3,438.3 806.5,432.7 808.7,430.5 811.0,440.6 813.2,447.7 815.4,462.7 817.6,462.7 819.9,462.7 822.1,461.0 824.3,457.7 826.5,446.6 828.8,460.0 831.0,457.1 833.2,457.1 835.5,457.1 837.7,459.1 839.9,444.1 842.1,441.9 844.4,445.5 846.6,445.5 848.8,445.5 851.1,445.5 853.3,444.5 855.5,443.3 857.7,430.1 860.0,432.6 862.2,431.4 864.4,431.4 866.7,431.4 868.9,427.7 871.1,421.6 873.3,423.8 875.6,419.0 877.8,416.9 880.0,416.9 882.3,416.9 884.5,419.9 886.7,427.6 888.9,418.0 891.2,420.9 893.4,417.4 895.6,417.4 897.9,417.4 900.1,418.7 902.3,419.4 904.5,416.1 906.8,406.7 909.0,407.5 911.2,407.5 913.5,407.5 915.7,411.0 917.9,403.6 920.1,396.8 922.4,402.1 924.6,395.0 926.8,395.0 929.1,395.0 931.3,383.7 933.5,384.4 935.7,377.4 938.0,379.7 940.2,387.4 942.4,387.4 944.7,387.4 946.9,385.6 949.1,389.4 951.3,385.6 953.6,389.4 955.8,387.6 958.0,387.6 960.3,387.6 962.5,387.6 964.7,383.0 966.9,389.0 969.2,385.3 971.4,384.8 973.6,384.8 975.9,384.8 978.1,387.5 980.3,378.5 982.5,377.4 984.8,377.4 987.0,405.9 989.2,405.9 991.5,405.9 993.7,401.7 995.9,407.1 998.1,418.5 1000.4,405.8 1002.6,400.5 1004.8,400.5 1007.1,400.5 1009.3,389.3 1011.5,394.0 1013.7,399.4 1016.0,392.2 1018.2,392.2 1020.4,392.2 1022.7,392.2 1024.9,386.8 1027.1,408.7 1029.3,416.7 1031.6,408.7 1033.8,414.6 1036.0,414.6 1038.3,414.6 1040.5,410.0" fill="none" stroke="#dc2626" stroke-width="3" stroke-linejoin="round" stroke-linecap="round"/>
<circle cx="1040.5" cy="410.0" r="4" fill="#dc2626"/>
<rect x="330" y="525" width="16" height="3" fill="#dc2626"/>
<text x="354" y="530" font-family="Arial, sans-serif" font-size="13" fill="#111827">叫兽指数内地版/代理口径</text>
</svg>