<svg xmlns="http://www.w3.org/2000/svg" width="1100" height="560" viewBox="0 0 1100 560">
<rect width="100%" height="100%" fill="#ffffff"/>
<text x="80" y="30" font-family="Arial, sans-serif" font-size="22" font-weight="700" fill="#111827">Deepvan 组合净值曲线</text>
<text x="80" y="52" font-family="Arial, sans-serif" font-size="13" fill="#6b7280">黑线为官方锚定细化曲线；蓝线为国际版持仓重建；红线为内地版代理口径。</text>
<line x1="80" y1="485.0" x2="1065" y2="485.0" stroke="#e5e7eb" stroke-width="1"/>
<text x="70" y="489.0" text-anchor="end" font-family="Arial, sans-serif" font-size="12" fill="#6b7280">0.94</text>
<line x1="80" y1="397.0" x2="1065" y2="397.0" stroke="#e5e7eb" stroke-width="1"/>
<text x="70" y="401.0" text-anchor="end" font-family="Arial, sans-serif" font-size="12" fill="#6b7280">1.03</text>
<line x1="80" y1="309.0" x2="1065" y2="309.0" stroke="#e5e7eb" stroke-width="1"/>
<text x="70" y="313.0" text-anchor="end" font-family="Arial, sans-serif" font-size="12" fill="#6b7280">1.11</text>
<line x1="80" y1="221.0" x2="1065" y2="221.0" stroke="#e5e7eb" stroke-width="1"/>
<text x="70" y="225.0" text-anchor="end" font-family="Arial, sans-serif" font-size="12" fill="#6b7280">1.20</text>
<line x1="80" y1="133.0" x2="1065" y2="133.0" stroke="#e5e7eb" stroke-width="1"/>
<text x="70" y="137.0" text-anchor="end" font-family="Arial, sans-serif" font-size="12" fill="#6b7280">1.28</text>
<line x1="80" y1="45.0" x2="1065" y2="45.0" stroke="#e5e7eb" stroke-width="1"/>
<text x="70" y="49.0" text-anchor="end" font-family="Arial, sans-serif" font-size="12" fill="#6b7280">1.36</text>
<line x1="80.0" y1="45" x2="80.0" y2="485" stroke="#f3f4f6" stroke-width="1"/>
<text x="80.0" y="510" text-anchor="middle" font-family="Arial, sans-serif" font-size="12" fill="#6b7280">2025-01-08</text>
<line x1="326.2" y1="45" x2="326.2" y2="485" stroke="#f3f4f6" stroke-width="1"/>
<text x="326.2" y="510" text-anchor="middle" font-family="Arial, sans-serif" font-size="12" fill="#6b7280">2025-05-25</text>
<line x1="572.5" y1="45" x2="572.5" y2="485" stroke="#f3f4f6" stroke-width="1"/>
<text x="572.5" y="510" text-anchor="middle" font-family="Arial, sans-serif" font-size="12" fill="#6b7280">2025-10-09</text>
<line x1="818.8" y1="45" x2="818.8" y2="485" stroke="#f3f4f6" stroke-width="1"/>
<text x="818.8" y="510" text-anchor="middle" font-family="Arial, sans-serif" font-size="12" fill="#6b7280">2026-02-23</text>
<line x1="1065.0" y1="45" x2="1065.0" y2="485" stroke="#f3f4f6" stroke-width="1"/>
<text x="1065.0" y="510" text-anchor="middle" font-family="Arial, sans-serif" font-size="12" fill="#6b7280">2026-07-10</text>
<line x1="80" y1="485" x2="1065" y2="485" stroke="#9ca3af"/>
<line x1="80" y1="45" x2="80" y2="485" stroke="#9ca3af"/>
<polyline points="80.0,356.7 81.8,356.3 83.6,355.9 85.4,355.6 87.2,355.2 89.0,354.8 90.8,354.5 92.6,354.1 94.4,353.7 96.2,353.4 98.0,353.0 99.8,352.6 101.6,352.3 103.4,351.9 105.2,351.5 107.0,351.2 108.8,350.8 110.6,350.4 112.4,350.1 114.2,349.7 115.9,349.3 117.7,349.0 119.5,348.6 121.3,348.2 123.1,347.9 124.9,347.5 126.7,347.1 128.5,346.8 130.3,346.4 132.1,346.0 133.9,345.7 135.7,345.3 137.5,344.9 139.3,344.6 141.1,344.2 142.9,343.8 144.7,343.5 146.5,343.1 148.3,342.7 150.1,342.4 151.9,342.0 153.7,341.6 155.5,341.3 157.3,340.9 159.1,340.5 160.9,340.2 162.7,339.8 164.5,339.4 166.3,339.1 168.1,338.7 169.9,338.3 171.7,338.0 173.5,337.6 175.3,337.2 177.1,336.9 178.9,336.5 180.7,336.1 182.5,335.8 184.3,335.4 186.0,335.0 187.8,334.7 189.6,334.3 191.4,333.9 193.2,333.6 195.0,333.2 196.8,332.8 198.6,332.5 200.4,332.1 202.2,331.7 204.0,331.4 205.8,331.0 207.6,330.6 209.4,330.3 211.2,329.9 213.0,329.5 214.8,329.2 216.6,328.8 218.4,328.4 220.2,328.1 222.0,327.7 223.8,327.3 225.6,327.0 227.4,326.6 229.2,326.2 231.0,325.9 232.8,325.5 234.6,325.1 236.4,324.8 238.2,324.4 240.0,324.0 241.8,323.7 243.6,323.3 245.4,322.9 247.2,322.5 249.0,322.2 250.8,321.8 252.6,321.4 254.4,321.1 256.1,320.7 257.9,320.3 259.7,320.0 261.5,319.6 263.3,319.2 265.1,318.9 266.9,318.5 268.7,318.1 270.5,317.8 272.3,317.4 274.1,317.0 275.9,316.7 277.7,316.3 279.5,315.9 281.3,315.6 283.1,315.2 284.9,314.8 286.7,314.5 288.5,314.1 290.3,313.7 292.1,313.4 293.9,313.0 295.7,312.6 297.5,312.3 299.3,311.9 301.1,311.5 302.9,311.2 304.7,310.8 306.5,310.4 308.3,305.6 310.1,301.7 311.9,301.9 313.7,302.0 315.5,298.8 317.3,296.0 319.1,302.5 320.9,304.5 322.7,304.4 324.5,304.5 326.2,304.6 328.0,307.1 329.8,293.1 331.6,299.0 333.4,292.0 335.2,292.8 337.0,292.7 338.8,292.6 340.6,287.7 342.4,286.6 344.2,281.6 346.0,284.7 347.8,278.0 349.6,278.1 351.4,278.1 353.2,272.6 355.0,265.4 356.8,266.4 358.6,258.7 360.4,269.5 362.2,269.0 364.0,268.4 365.8,263.3 367.6,274.5 369.4,274.3 371.2,277.0 373.0,282.0 374.8,282.1 376.6,282.2 378.4,273.1 380.2,263.1 382.0,263.4 383.8,257.1 385.6,254.4 387.4,254.5 389.2,254.7 391.0,250.9 392.8,251.6 394.6,250.6 396.4,243.0 398.1,242.5 399.9,242.4 401.7,242.3 403.5,251.3 405.3,249.2 407.1,243.1 408.9,243.2 410.7,245.7 412.5,245.7 414.3,245.6 416.1,242.6 417.9,243.2 419.7,239.0 421.5,230.6 423.3,232.1 425.1,232.2 426.9,232.2 428.7,227.5 430.5,225.8 432.3,216.3 434.1,216.2 435.9,215.7 437.7,215.7 439.5,215.8 441.3,216.6 443.1,214.2 444.9,219.5 446.7,223.9 448.5,236.4 450.3,236.4 452.1,236.4 453.9,225.1 455.7,224.8 457.5,217.2 459.3,215.3 461.1,210.7 462.9,210.8 464.7,211.0 466.5,213.4 468.2,203.4 470.0,197.2 471.8,199.0 473.6,196.0 475.4,196.1 477.2,196.3 479.0,192.0 480.8,200.2 482.6,205.4 484.4,207.5 486.2,191.5 488.0,191.1 489.8,190.8 491.6,194.8 493.4,194.0 495.2,197.4 497.0,194.4 498.8,198.1 500.6,198.7 502.4,199.3 504.2,195.8 506.0,200.3 507.8,194.0 509.6,191.2 511.4,186.2 513.2,186.8 515.0,187.4 516.8,183.0 518.6,182.2 520.4,181.3 522.2,174.4 524.0,173.2 525.8,172.8 527.6,172.4 529.4,163.0 531.2,166.5 533.0,169.4 534.8,164.7 536.6,164.1 538.3,163.6 540.1,163.2 541.9,157.2 543.7,163.8 545.5,167.1 547.3,171.3 549.1,167.3 550.9,166.9 552.7,166.5 554.5,160.9 556.3,154.9 558.1,149.9 559.9,149.5 561.7,146.6 563.5,146.7 565.3,146.8 567.1,135.1 568.9,140.2 570.7,131.2 572.5,135.1 574.3,164.8 576.1,165.3 577.9,165.7 579.7,150.0 581.5,154.3 583.3,145.2 585.1,143.7 586.9,145.4 588.7,145.9 590.5,146.3 592.3,135.7 594.1,142.5 595.9,151.1 597.7,145.7 599.5,140.1 601.3,140.5 603.1,141.0 604.9,131.7 606.7,130.9 608.4,123.1 610.2,133.7 612.0,131.9 613.8,131.2 615.6,130.5 617.4,126.3 619.2,144.1 621.0,136.0 622.8,144.7 624.6,145.5 626.4,144.8 628.2,144.1 630.0,122.3 631.8,121.2 633.6,112.9 635.4,120.4 637.2,126.6 639.0,127.0 640.8,127.4 642.6,131.9 644.4,148.5 646.2,142.2 648.0,160.5 649.8,166.4 651.6,166.8 653.4,167.2 655.2,155.4 657.0,147.2 658.8,138.8 660.6,139.3 662.4,133.3 664.2,133.7 666.0,134.1 667.8,137.5 669.6,135.4 671.4,136.3 673.2,134.0 675.0,132.6 676.8,133.0 678.5,132.4 680.3,136.0 682.1,137.6 683.9,132.3 685.7,131.0 687.5,139.0 689.3,138.5 691.1,137.9 692.9,142.4 694.7,148.9 696.5,158.6 698.3,149.6 700.1,137.2 701.9,137.7 703.7,138.2 705.5,127.8 707.3,118.9 709.1,120.0 710.9,117.8 712.7,114.8 714.5,112.6 716.3,110.3 718.1,117.9 719.9,116.7 721.7,121.4 723.5,121.9 725.3,119.8 727.1,120.3 728.9,120.8 730.7,108.1 732.5,101.8 734.3,98.9 736.1,99.0 737.9,85.2 739.7,85.7 741.5,86.2 743.3,80.3 745.1,80.1 746.9,81.9 748.6,81.4 750.4,84.3 752.2,84.8 754.0,85.3 755.8,85.8 757.6,104.1 759.4,91.7 761.2,82.2 763.0,87.6 764.8,88.1 766.6,88.6 768.4,84.5 770.2,76.2 772.0,73.8 773.8,73.1 775.6,89.0 777.4,89.5 779.2,90.0 781.0,89.0 782.8,83.6 784.6,90.6 786.4,111.9 788.2,84.7" fill="none" stroke="#111827" stroke-width="3" stroke-linejoin="round" stroke-linecap="round"/>
<circle cx="788.2" cy="84.7" r="4" fill="#111827"/>
<rect x="80" y="525" width="16" height="3" fill="#111827"/>
<text x="104" y="530" font-family="Arial, sans-serif" font-size="13" fill="#111827">官方锚定细化曲线</text>
<polyline points="270.5,427.0 272.3,425.0 274.1,425.0 275.9,425.0 277.7,424.2 279.5,420.6 281.3,421.0 283.1,420.1 284.9,412.7 286.7,412.7 288.5,412.7 290.3,412.4 292.1,414.7 293.9,418.7 295.7,420.9 297.5,417.8 299.3,417.8 301.1,417.8 302.9,405.5 304.7,401.2 306.5,401.9 308.3,397.3 310.1,393.7 311.9,393.7 313.7,393.7 315.5,390.7 317.3,388.1 319.1,393.9 320.9,395.7 322.7,395.5 324.5,395.5 326.2,395.5 328.0,397.6 329.8,384.7 331.6,390.1 333.4,383.9 335.2,384.6 337.0,384.6 338.8,384.6 340.6,380.2 342.4,379.3 344.2,374.7 346.0,377.5 347.8,371.3 349.6,371.3 351.4,371.3 353.2,366.2 355.0,360.0 356.8,361.4 358.6,354.8 360.4,365.3 362.2,365.3 364.0,365.3 365.8,360.5 367.6,370.7 369.4,370.4 371.2,372.7 373.0,377.2 374.8,377.2 376.6,377.2 378.4,368.7 380.2,359.3 382.0,359.5 383.8,353.6 385.6,351.0 387.4,351.0 389.2,351.0 391.0,347.4 392.8,347.9 394.6,346.9 396.4,339.9 398.1,339.6 399.9,339.6 401.7,339.6 403.5,347.9 405.3,346.1 407.1,340.6 408.9,340.7 410.7,343.2 412.5,343.2 414.3,343.2 416.1,340.5 417.9,341.2 419.7,337.4 421.5,329.7 423.3,331.2 425.1,331.2 426.9,331.2 428.7,326.8 430.5,325.3 432.3,316.4 434.1,316.3 435.9,315.8 437.7,315.8 439.5,315.8 441.3,316.5 443.1,314.2 444.9,319.1 446.7,323.1 448.5,334.5 450.3,334.5 452.1,334.5 453.9,324.0 455.7,323.8 457.5,316.7 459.3,314.9 461.1,310.5 462.9,310.5 464.7,310.5 466.5,312.6 468.2,303.2 470.0,297.3 471.8,298.8 473.6,295.9 475.4,295.9 477.2,295.9 479.0,291.8 480.8,299.2 482.6,304.3 484.4,306.6 486.2,292.2 488.0,292.2 489.8,292.2 491.6,296.2 493.4,295.8 495.2,299.3 497.0,296.8 498.8,300.6 500.6,300.6 502.4,300.6 504.2,296.8 506.0,300.4 507.8,294.0 509.6,290.9 511.4,285.7 513.2,285.7 515.0,285.7 516.8,281.1 518.6,279.9 520.4,278.4 522.2,272.5 524.0,271.8 525.8,271.8 527.6,271.8 529.4,263.6 531.2,267.2 533.0,270.2 534.8,266.4 536.6,266.2 538.3,266.2 540.1,266.2 541.9,261.1 543.7,267.6 545.5,271.0 547.3,275.2 549.1,272.0 550.9,272.0 552.7,272.0 554.5,267.2 556.3,262.2 558.1,258.0 559.9,258.1 561.7,255.8 563.5,255.8 565.3,255.8 567.1,244.9 568.9,249.5 570.7,241.2 572.5,244.6 574.3,271.5 576.1,271.5 577.9,271.5 579.7,256.7 581.5,260.2 583.3,251.5 585.1,249.7 586.9,250.9 588.7,250.9 590.5,250.9 592.3,240.7 594.1,246.6 595.9,254.1 597.7,248.8 599.5,243.1 601.3,243.1 603.1,243.1 604.9,234.2 606.7,233.0 608.4,226.5 610.2,236.9 612.0,235.9 613.8,235.9 615.6,235.9 617.4,232.7 619.2,249.7 621.0,242.9 622.8,251.6 624.6,252.9 626.4,252.9 628.2,252.9 630.0,233.6 631.8,233.2 633.6,226.2 635.4,233.8 637.2,239.1 639.0,239.1 640.8,239.1 642.6,242.8 644.4,257.7 646.2,251.5 648.0,267.9 649.8,273.0 651.6,273.0 653.4,273.0 655.2,261.8 657.0,253.9 658.8,245.8 660.6,245.9 662.4,240.0 664.2,240.0 666.0,240.0 667.8,242.7 669.6,240.4 671.4,240.9 673.2,238.4 675.0,236.7 676.8,236.7 678.5,236.7 680.3,240.5 682.1,242.5 683.9,238.0 685.7,237.4 687.5,245.2 689.3,245.2 691.1,245.2 692.9,249.9 694.7,255.4 696.5,263.8 698.3,255.1 700.1,243.2 701.9,243.2 703.7,243.2 705.5,235.6 707.3,229.4 709.1,232.5 710.9,232.5 712.7,231.8 714.5,231.8 716.3,231.8 718.1,240.7 719.9,241.6 721.7,247.9 723.5,247.9 725.3,245.6 727.1,245.6 728.9,245.6 730.7,233.6 732.5,227.5 734.3,224.5 736.1,224.1 737.9,211.2 739.7,211.2 741.5,211.2 743.3,205.3 745.1,204.8 746.9,205.9 748.6,205.1 750.4,207.3 752.2,207.3 754.0,207.3 755.8,207.3 757.6,223.6 759.4,211.8 761.2,202.7 763.0,207.2 764.8,207.2 766.6,207.2 768.4,203.0 770.2,195.0 772.0,192.4 773.8,191.3 775.6,205.5 777.4,205.5 779.2,205.5 781.0,204.1 782.8,198.7 784.6,204.7 786.4,223.8 788.2,198.4 790.0,198.4 791.8,198.4 793.6,185.2 795.4,189.4 797.2,189.1 799.0,208.0 800.8,205.1 802.6,205.1 804.4,205.1 806.2,204.7 808.0,214.5 809.8,208.7 811.6,209.4 813.4,195.6 815.2,195.6 817.0,195.6 818.8,196.8 820.5,193.9 822.3,184.3 824.1,191.7 825.9,189.1 827.7,189.1 829.5,189.1 831.3,193.1 833.1,216.4 834.9,209.0 836.7,216.1 838.5,221.1 840.3,221.1 842.1,221.1 843.9,214.0 845.7,208.8 847.5,208.2 849.3,231.3 851.1,239.2 852.9,239.2 854.7,239.2 856.5,225.6 858.3,219.4 860.1,234.3 861.9,247.7 863.7,269.9 865.5,269.9 867.3,269.9 869.1,268.9 870.9,270.0 872.7,260.2 874.5,283.7 876.3,283.6 878.1,283.6 879.9,283.6 881.7,290.6 883.5,262.7 885.3,247.7 887.1,256.1 888.9,256.1 890.6,256.1 892.4,256.1 894.2,250.1 896.0,245.3 897.8,216.5 899.6,216.4 901.4,218.0 903.2,218.0 905.0,218.0 906.8,215.3 908.6,200.4 910.4,202.0 912.2,197.4 914.0,189.9 915.8,189.9 917.6,189.9 919.4,196.3 921.2,208.8 923.0,199.2 924.8,203.5 926.6,197.2 928.4,197.2 930.2,197.2 932.0,192.5 933.8,194.4 935.6,195.0 937.4,168.3 939.2,169.2 941.0,169.2 942.8,169.2 944.6,171.7 946.4,158.9 948.2,139.3 950.0,141.0 951.8,128.7 953.6,128.7 955.4,128.7 957.2,126.1 959.0,134.7 960.7,116.8 962.5,114.7 964.3,130.9 966.1,130.9 967.9,130.9 969.7,130.1 971.5,141.1 973.3,137.0 975.1,134.9 976.9,133.3 978.7,133.3 980.5,133.3 982.3,133.3 984.1,117.5 985.9,125.2 987.7,116.5 989.5,116.8 991.3,116.8 993.1,116.8 994.9,112.3 996.7,114.8 998.5,118.2 1000.3,117.5 1002.1,155.4 1003.9,155.4 1005.7,155.4 1007.5,148.5 1009.3,154.8 1011.1,179.5 1012.9,154.4 1014.7,147.5 1016.5,147.5 1018.3,147.5 1020.1,120.7 1021.9,128.0 1023.7,142.3 1025.5,130.8 1027.3,130.8 1029.1,130.8 1030.8,130.8 1032.6,140.9 1034.4,175.3 1036.2,178.1 1038.0,170.6 1039.8,176.8 1041.6,176.8 1043.4,176.8 1045.2,170.5 1047.0,164.0 1048.8,171.6 1050.6,172.3 1052.4,169.5 1054.2,169.5 1056.0,169.5 1057.8,153.3 1059.6,164.4 1061.4,166.8 1063.2,162.8 1065.0,161.7" fill="none" stroke="#2563eb" stroke-width="3" stroke-linejoin="round" stroke-linecap="round"/>
<circle cx="1065.0" cy="161.7" r="4" fill="#2563eb"/>
<rect x="330" y="525" width="16" height="3" fill="#2563eb"/>
<text x="354" y="530" font-family="Arial, sans-serif" font-size="13" fill="#111827">国际版持仓重建</text>
<polyline points="820.5,427.0 822.3,416.6 824.1,423.2 825.9,422.1 827.7,422.1 829.5,422.1 831.3,420.2 833.1,444.3 834.9,434.4 836.7,441.1 838.5,445.9 840.3,445.9 842.1,445.9 843.9,438.5 845.7,435.1 847.5,430.2 849.3,438.1 851.1,442.5 852.9,442.5 854.7,442.5 856.5,437.4 858.3,435.4 860.1,444.6 861.9,451.1 863.7,464.8 865.5,464.8 867.3,464.8 869.1,463.2 870.9,460.2 872.7,450.1 874.5,462.3 876.3,459.6 878.1,459.6 879.9,459.6 881.7,461.5 883.5,447.8 885.3,445.8 887.1,449.1 888.9,449.1 890.6,449.1 892.4,449.1 894.2,448.2 896.0,447.1 897.8,435.1 899.6,437.4 901.4,436.3 903.2,436.3 905.0,436.3 906.8,432.9 908.6,427.4 910.4,429.3 912.2,425.0 914.0,423.1 915.8,423.1 917.6,423.1 919.4,425.8 921.2,432.8 923.0,424.1 924.8,426.7 926.6,423.6 928.4,423.6 930.2,423.6 932.0,424.7 933.8,425.4 935.6,422.4 937.4,413.8 939.2,414.5 941.0,414.5 942.8,414.5 944.6,417.7 946.4,411.0 948.2,404.8 950.0,409.6 951.8,403.2 953.6,403.2 955.4,403.2 957.2,392.9 959.0,393.5 960.7,387.2 962.5,389.3 964.3,396.3 966.1,396.3 967.9,396.3 969.7,394.6 971.5,398.1 973.3,394.6 975.1,398.1 976.9,396.4 978.7,396.4 980.5,396.4 982.3,396.4 984.1,392.3 985.9,397.7 987.7,394.4 989.5,394.0 991.3,394.0 993.1,394.0 994.9,396.3 996.7,388.2 998.5,387.1 1000.3,387.2 1002.1,413.1 1003.9,413.1 1005.7,413.1 1007.5,409.3 1009.3,414.2 1011.1,424.5 1012.9,413.0 1014.7,408.2 1016.5,408.2 1018.3,408.2 1020.1,398.0 1021.9,402.3 1023.7,407.1 1025.5,400.7 1027.3,400.7 1029.1,400.7 1030.8,400.7 1032.6,395.7 1034.4,415.6 1036.2,422.9 1038.0,415.7 1039.8,421.0 1041.6,421.0 1043.4,421.0 1045.2,416.8" fill="none" stroke="#dc2626" stroke-width="3" stroke-linejoin="round" stroke-linecap="round"/>
<circle cx="1045.2" cy="416.8" r="4" fill="#dc2626"/>
<rect x="580" y="525" width="16" height="3" fill="#dc2626"/>
<text x="604" y="530" font-family="Arial, sans-serif" font-size="13" fill="#111827">内地版代理口径</text>
</svg>